<svg width="0" height="0" version="1.1" xmlns="http://www.w3.org/2000/svg">
<defs>
<symbol id="business" width="27" height="30" viewBox="0 0 27 30"><title>business</title><g id="Page-1" fill="none" fill-rule="evenodd"><g id="Desktop-HD" transform="translate(-1148 -499)" fill="#FFF"><path d="M24.668 21.464a1.478 1.478 0 0 1-2.016.54 1.477 1.477 0 1 1 2.016-.54m-9.73 5.002c0 .814-.663 1.476-1.477 1.476a1.478 1.478 0 0 1-1.476-1.476c0-.815.662-1.477 1.476-1.477s1.476.662 1.476 1.477m-9.985-5.347c-.102.38-.347.699-.688.896-.341.197-.739.25-1.12.147a1.477 1.477 0 0 1-.356-2.704 1.477 1.477 0 0 1 2.164 1.66m-.154-11.112a1.478 1.478 0 0 1-2.016.54 1.477 1.477 0 0 1 .74-2.753 1.478 1.478 0 0 1 1.276 2.214m17.16-1.131c.102-.381.347-.7.688-.896a1.466 1.466 0 0 1 1.12-.148c.38.102.699.346.896.688.197.341.25.739.148 1.12a1.478 1.478 0 0 1-2.851-.764m3.19 8.805a3.523 3.523 0 0 0-4.045.373l-5.211-3.009c0-.031-.003-.062-.005-.093l5.22-3.014c.64.542 1.454.836 2.282.836.596 0 1.2-.152 1.752-.47a3.494 3.494 0 0 0 1.639-2.136 3.495 3.495 0 0 0-.352-2.669 3.494 3.494 0 0 0-2.135-1.638 3.495 3.495 0 0 0-2.668.351 3.494 3.494 0 0 0-1.639 2.136A3.498 3.498 0 0 0 19.93 9.9L14.57 12.95c-.01 0-.037-.002-.097-.002V6.84c1.413-.486 2.415-1.787 2.415-3.312 0-1.94-1.539-3.517-3.478-3.517-1.94 0-3.576 1.578-3.576 3.517 0 1.528 1.029 2.83 2.285 3.315v6.113L6.9 9.91c.257-1.42-.322-2.878-1.642-3.663h.01c-1.68-.942-3.83-.405-4.8 1.275a3.514 3.514 0 0 0 1.29 4.797 3.495 3.495 0 0 0 1.754.467c.832 0 1.65-.297 2.292-.845l5.295 3.056-5.298 3.059a3.522 3.522 0 0 0-4.034-.366A3.52 3.52 0 0 0 .48 22.495a3.494 3.494 0 0 0 2.135 1.639 3.496 3.496 0 0 0 2.668-.351 3.494 3.494 0 0 0 1.64-2.136 3.5 3.5 0 0 0 .057-1.553l5.174-3.032c.014.009-.036.017-.036.026v6.067c-1.256.487-2.253 1.787-2.253 3.31 0 1.94 1.617 3.518 3.556 3.518 1.94 0 3.458-1.578 3.458-3.517 0-1.53-.994-2.834-2.407-3.317v-5.995c.157-.019.147-.04.18-.06l5.239 3.001a3.536 3.536 0 0 0 3.482 4.147c1.216 0 2.406-.63 3.057-1.758a3.52 3.52 0 0 0-1.283-4.803" transform="translate(1148 499)" id="business"/></g></g></symbol>

<symbol id="design-ux" width="33" height="25" viewBox="0 0 33 25"><title>designeux</title><g id="Page-1" fill="none" fill-rule="evenodd"><g id="Desktop-HD" transform="translate(-748 -502)" fill="#FFF"><g id="Page-1" transform="translate(748 502)"><path d="M32.73 11.759c-.064-.117-1.577-2.904-4.298-5.717C24.749 2.237 20.602.225 16.436.225S8.122 2.237 4.44 6.042C1.718 8.855.206 11.642.142 11.759c-.134.251-.17.529-.121.789-.05.26-.013.537.121.788.064.117 1.576 2.904 4.298 5.717 3.682 3.805 7.83 5.817 11.996 5.817 4.165 0 8.313-2.012 11.996-5.817 2.721-2.813 4.234-5.6 4.297-5.717.135-.25.17-.529.121-.788a1.19 1.19 0 0 0-.12-.789zm-16.294 10.72c-7.641 0-12.922-8.145-13.989-9.932 1.063-1.789 6.327-9.93 13.989-9.93 7.64 0 12.922 8.143 13.988 9.93-1.067 1.79-6.348 9.931-13.988 9.931zm1.874-10.03c0-.573.465-1.196 1.039-1.196h2.537c-.498-2.39-2.751-4.38-5.457-4.38-3.071 0-5.56 2.547-5.56 5.618 0 3.07 2.489 5.633 5.56 5.633 2.726 0 4.992-2.088 5.467-4.48h-2.547c-.574 0-1.039-.622-1.039-1.195z" id="designeux"/></g></g></g></symbol>

<symbol id="front-end" width="28" height="29" viewBox="0 0 28 29"><title>front-end</title><g id="Page-1" fill="none" fill-rule="evenodd"><g id="Desktop-HD" transform="translate(-548 -500)" fill="#FFF"><g id="Page-1" transform="translate(548 500)"><path d="M13.481 2.728a1.364 1.364 0 0 0 0-2.728H1.605C1.208 0 .77.09.522.361.25.611 0 .887 0 1.284V13.16a1.364 1.364 0 0 0 2.728 0V2.728h10.753zm13.155 10.747c-.754 0-1.364.611-1.364 1.365v10.753H14.84a1.364 1.364 0 0 0 0 2.728h11.876c.397 0 .673-.251.923-.522.27-.25.361-.686.361-1.083V14.84c0-.754-.61-1.365-1.364-1.365zm-13.92 6.303a1.204 1.204 0 0 0 2.407 0v-3.35l3.123 1.756c.19.11.437.162.641.162.416 0 .84-.216 1.064-.602a1.2 1.2 0 0 0-.431-1.645l-2.982-1.724 2.99-1.725a1.204 1.204 0 0 0 .441-1.644c-.332-.576-1.148-.773-1.723-.44l-3.123 1.756V8.864a1.204 1.204 0 0 0-2.407 0v3.394l-2.851-1.693c-.576-.332-1.272-.135-1.604.441-.332.576-.115 1.312.46 1.644l2.997 1.725-2.981 1.724a1.205 1.205 0 1 0 .607 2.246c.204 0 .33-.051.52-.16l2.852-1.693v3.286z" id="front-end"/></g></g></g></symbol>

<symbol id="infraestrutura" width="30" height="30" viewBox="0 0 30 30"><title>infraestrutura</title><g id="Page-1" fill="none" fill-rule="evenodd"><g id="Desktop-HD" transform="translate(-948 -499)" fill="#FFF"><g id="Page-1" transform="translate(948 499)"><path d="M15.01 25.042c-5.509 0-9.991-4.483-9.991-9.992 0-5.51 4.482-9.992 9.992-9.992 5.51 0 9.991 4.483 9.991 9.992 0 5.51-4.482 9.992-9.991 9.992m14.665-12.095l-2.477-.46a12.382 12.382 0 0 0-1.753-4.263l1.466-2.11a.401.401 0 0 0 .004-.566L24.51 3.14a.4.4 0 0 0-.564 0l-2.11 1.456a12.422 12.422 0 0 0-4.262-1.772l-.46-2.47c0-.22-.18-.354-.4-.354h-3.406c-.22 0-.4.134-.4.354l-.461 2.493a12.393 12.393 0 0 0-4.263 1.76l-2.11-1.461a.401.401 0 0 0-.566-.003L3.1 5.549a.4.4 0 0 0 0 .565l1.457 2.11a12.418 12.418 0 0 0-1.772 4.262l-2.45.462c-.22 0-.335.18-.335.4v3.405c0 .22.115.4.335.4l2.482.461a12.391 12.391 0 0 0 1.756 4.262L3.11 23.987a.4.4 0 0 0-.005.565l2.407 2.409a.4.4 0 0 0 .564 0l2.11-1.457a12.414 12.414 0 0 0 4.262 1.772l.461 2.42c0 .22.18.304.4.304h3.406c.22 0 .4-.084.4-.304l.46-2.468a12.377 12.377 0 0 0 4.263-1.748l2.11 1.469c.156.155.41.16.566.006l2.408-2.406a.4.4 0 0 0 0-.563l-1.456-2.11a12.418 12.418 0 0 0 1.772-4.262l2.44-.462c.219 0 .323-.18.323-.4v-3.405c0-.22-.104-.4-.324-.4zM15.011 10.52a4.536 4.536 0 0 0-4.53 4.53 4.536 4.536 0 0 0 4.53 4.53 4.535 4.535 0 0 0 4.53-4.53 4.535 4.535 0 0 0-4.53-4.53zm0 6.56c-1.12 0-2.03-.91-2.03-2.03 0-1.12.91-2.03 2.03-2.03 1.12 0 2.03.91 2.03 2.03 0 1.12-.91 2.03-2.03 2.03z" id="infraestrutura"/></g></g></g></symbol>

<symbol id="mobile" width="22" height="33" viewBox="0 0 22 33"><title>mobile</title><g id="Page-1" fill="none" fill-rule="evenodd"><g id="Desktop-HD" transform="translate(-148 -497)" fill-opacity=".6" fill="#FFF"><g id="Page-1" transform="translate(148 497)"><g id="Group-7"><path d="M17.612 29.584H3.604c-.384 0-.662-.304-.662-.761v-5.51h15.332v5.51c0 .457-.278.76-.662.76zM3.604 2.942h14.008c.384 0 .662.29.662.654v17.396H2.942V3.596c0-.364.278-.654.662-.654zm17.613.697A3.64 3.64 0 0 0 17.577 0H3.64A3.64 3.64 0 0 0 0 3.64v25.242a3.64 3.64 0 0 0 3.64 3.64h13.938a3.64 3.64 0 0 0 3.64-3.64V3.64zM10.837 25h-.175C9.744 25 9 25.783 9 26.75s.744 1.75 1.662 1.75h.175c.919 0 1.663-.783 1.663-1.75S11.756 25 10.837 25" id="mobile"/></g></g></g></g></symbol>

<symbol id="programacao" width="25" height="29" viewBox="0 0 25 29"><title>programacao</title><g id="Page-1" fill="none" fill-rule="evenodd"><g id="Desktop-HD" transform="translate(-348 -500)" fill="#FFF"><g id="Page-1" transform="translate(348 500)"><path d="M13.656 14.19l-5.16-5.158a1.548 1.548 0 1 0-2.188 2.19l4.205 4.204-4.205 4.205a1.548 1.548 0 1 0 2.189 2.19l5.159-5.16c.338-.338.487-.793.446-1.235a1.544 1.544 0 0 0-.446-1.235zm9.661 5.363h-7.495a1.548 1.548 0 1 0 0 3.096h7.495a1.548 1.548 0 1 0 0-3.096zm.081 6.355H3.381c-.265 0-.448-.212-.448-.477V3.48c0-.265.183-.546.448-.546h20.017a1.466 1.466 0 1 0 0-2.933H3.381C1.494 0 0 1.592 0 3.479V25.43c0 1.887 1.494 3.41 3.38 3.41h20.018a1.466 1.466 0 1 0 0-2.933z" id="programacao"/></g></g></g></symbol>
</defs>
</svg>